<?xml version="1.0" standalone="no"?>
<!DOCTYPE svg PUBLIC "-//W3C//DTD SVG 20010904//EN"
 "http://www.w3.org/TR/2001/REC-SVG-20010904/DTD/svg10.dtd">
<svg version="1.0" xmlns="http://www.w3.org/2000/svg"
 width="512.000000pt" height="512.000000pt" viewBox="0 0 512.000000 512.000000"
 preserveAspectRatio="xMidYMid meet">
<metadata>
Created by potrace 1.16, written by Peter Selinger 2001-2019
</metadata>
<g transform="translate(0.000000,512.000000) scale(0.100000,-0.100000)"
fill="#000000" stroke="none">
<path d="M1745 4006 c-43 -19 -63 -53 -70 -122 -3 -33 -19 -270 -36 -528 -27
-426 -28 -471 -14 -492 35 -55 51 -58 299 -65 127 -4 259 -8 293 -8 77 -1 83
-10 76 -106 -5 -68 -6 -71 -32 -73 -143 -9 -231 -36 -204 -63 32 -32 385 -59
530 -40 171 22 178 79 13 98 -61 8 -65 10 -68 35 -4 32 -5 32 223 47 387 26
428 26 497 1 161 -57 492 -243 541 -302 14 -17 17 -31 12 -58 -12 -63 -48 -88
-172 -120 -69 -18 -72 -20 -27 -15 48 5 138 26 177 40 15 7 17 -2 17 -91 -1
-162 -28 -873 -34 -883 -3 -5 -66 -23 -139 -41 -72 -17 -233 -56 -356 -86
-123 -30 -231 -54 -240 -54 -16 0 -17 26 -13 379 l5 379 -29 -5 c-16 -3 -176
-34 -355 -69 -179 -35 -329 -64 -332 -64 -4 0 -7 21 -7 48 0 26 -5 67 -11 92
-20 87 -34 97 -311 215 -215 91 -279 124 -423 215 -93 59 -184 115 -201 125
-30 17 -32 22 -38 97 -8 101 -3 108 78 108 120 0 856 71 856 82 0 12 -71 10
-236 -7 -240 -24 -471 -44 -592 -51 -101 -6 -115 -9 -126 -28 -10 -17 -10 -59
0 -218 7 -108 17 -374 22 -590 6 -253 13 -401 20 -414 6 -12 26 -27 44 -34
300 -119 657 -277 824 -365 l82 -44 59 14 c32 8 150 37 263 64 266 65 274 66
341 47 54 -16 56 -16 199 20 80 19 247 60 372 89 126 30 237 59 248 65 11 6
25 20 31 31 7 14 16 174 25 438 17 511 17 666 3 693 -27 51 -416 274 -562 322
-27 9 -81 16 -125 16 -70 0 -379 -21 -544 -36 l-68 -7 0 38 0 38 289 -7 288
-7 31 26 c17 14 33 34 36 43 20 65 78 929 66 972 -26 90 -14 88 -824 165 -204
19 -426 42 -495 50 -149 18 -138 18 -176 1z m505 -105 c157 -17 402 -42 545
-56 143 -14 271 -28 284 -31 l24 -5 -7 -337 c-4 -185 -13 -404 -19 -487 l-12
-150 -651 1 c-358 1 -660 5 -672 8 -12 4 -26 16 -32 26 -6 12 -2 137 15 381
13 200 27 432 31 514 4 83 10 159 14 171 8 20 11 20 102 8 51 -7 221 -27 378
-43z m957 -253 c-2 -13 -4 -5 -4 17 -1 22 1 32 4 23 2 -10 2 -28 0 -40z m-10
-130 c-2 -13 -4 -5 -4 17 -1 22 1 32 4 23 2 -10 2 -28 0 -40z m-10 -120 c-2
-13 -4 -3 -4 22 0 25 2 35 4 23 2 -13 2 -33 0 -45z m-10 -105 c-2 -16 -4 -5
-4 22 0 28 2 40 4 28 2 -13 2 -35 0 -50z m-10 -110 c-2 -16 -4 -5 -4 22 0 28
2 40 4 28 2 -13 2 -35 0 -50z m-10 -120 c-2 -16 -4 -5 -4 22 0 28 2 40 4 28 2
-13 2 -35 0 -50z m-10 -120 c-2 -16 -4 -5 -4 22 0 28 2 40 4 28 2 -13 2 -35 0
-50z m-622 -364 c-50 -10 -242 -10 -275 1 -14 4 51 7 145 7 112 0 156 -2 130
-8z m-384 -30 c30 -6 144 -14 254 -18 l200 -8 -160 -1 c-158 -2 -303 10 -347
28 -32 12 -11 12 53 -1z m517 -16 c-10 -2 -26 -2 -35 0 -10 3 -2 5 17 5 19 0
27 -2 18 -5z m-1189 -242 c64 -38 147 -87 184 -110 37 -23 172 -87 300 -142
128 -55 243 -105 256 -112 37 -18 63 -88 67 -181 7 -129 10 -786 4 -784 -3 2
-100 51 -215 109 -116 59 -297 141 -403 183 -312 124 -299 117 -307 168 -3 23
-5 74 -3 111 l3 68 32 -24 c18 -13 97 -83 175 -155 224 -204 222 -192 -4 30
l-206 203 -6 230 c-4 127 -9 285 -13 353 -5 97 -3 122 7 122 8 0 66 -31 129
-69z m1493 -833 c-2 -183 -6 -336 -10 -339 -4 -3 -45 -14 -92 -23 -47 -10
-186 -42 -309 -72 -123 -30 -230 -54 -237 -54 -12 0 -14 60 -14 348 l0 348
313 61 c171 34 321 62 332 62 20 1 20 -4 17 -331z"/>
<path d="M2071 1568 c1 -73 5 -144 9 -158 5 -15 8 38 9 133 1 98 -3 157 -9
157 -6 0 -10 -50 -9 -132z"/>
<path d="M3055 2493 c-55 -7 -60 -11 -40 -33 10 -11 22 -20 28 -20 11 0 125
-89 187 -146 109 -101 103 -98 177 -86 36 6 70 15 75 20 12 12 -26 47 -189
173 -136 105 -136 105 -238 92z m39 -29 c3 -8 2 -12 -4 -9 -6 3 -10 10 -10 16
0 14 7 11 14 -7z m66 6 c13 -9 13 -10 0 -10 -8 0 -22 5 -30 10 -13 9 -13 10 0
10 8 0 22 -5 30 -10z m60 -40 c26 -16 3 -22 -27 -6 -23 13 -24 15 -8 15 11 1
27 -3 35 -9z m-55 -9 c10 -18 -17 -23 -33 -7 -15 15 -15 16 5 16 12 0 24 -4
28 -9z m111 -36 c10 -8 14 -15 7 -15 -19 0 -43 11 -43 21 0 13 14 11 36 -6z
m-50 -10 c16 -12 17 -14 2 -15 -23 0 -48 11 -48 21 0 14 24 11 46 -6z m104
-35 c13 -11 18 -20 11 -20 -18 0 -51 19 -51 30 0 16 15 12 40 -10z m-55 -10
c8 -13 -25 -13 -45 0 -12 8 -9 10 12 10 15 0 30 -4 33 -10z m100 -29 c10 -18
-17 -23 -33 -7 -15 15 -15 16 5 16 12 0 24 -4 28 -9z m-60 -11 c3 -5 -3 -10
-14 -10 -11 0 -23 5 -26 10 -3 6 3 10 14 10 11 0 23 -4 26 -10z m107 -43 c-11
-5 -29 -6 -39 -2 -15 7 -13 9 12 15 38 8 56 0 27 -13z m-67 3 c8 -13 -15 -13
-35 0 -12 8 -11 10 7 10 12 0 25 -4 28 -10z"/>
<path d="M2680 2440 c-113 -16 -338 -43 -500 -61 -275 -30 -320 -38 -320 -60
0 -11 358 -310 392 -326 23 -12 49 -10 190 12 258 41 821 135 841 141 36 11
16 43 -75 122 -51 44 -111 95 -133 114 -73 63 -118 88 -155 87 -19 -1 -127
-14 -240 -29z m253 -1 c-8 -8 -16 -8 -30 0 -16 9 -14 10 12 11 21 0 26 -3 18
-11z m-60 -6 c-7 -2 -19 -2 -25 0 -7 3 -2 5 12 5 14 0 19 -2 13 -5z m-133 -19
c0 -2 -15 -4 -32 -4 -23 0 -29 3 -19 9 12 8 51 4 51 -5z m43 9 c-7 -2 -19 -2
-25 0 -7 3 -2 5 12 5 14 0 19 -2 13 -5z m-115 -18 c-2 -1 -16 -5 -33 -9 -28
-6 -29 -5 -12 8 11 8 25 12 33 9 8 -3 14 -7 12 -8z m336 -4 c7 -11 -18 -21
-54 -21 -36 0 -49 17 -18 23 41 8 67 7 72 -2z m-484 -17 c0 -2 -12 -4 -27 -4
-21 0 -24 3 -14 9 13 8 41 5 41 -5z m60 6 c0 -13 -20 -13 -40 0 -12 8 -9 10
13 10 15 0 27 -4 27 -10z m310 -5 c11 -13 9 -15 -13 -15 -13 0 -30 7 -37 15
-11 13 -9 15 13 15 13 0 30 -7 37 -15z m-446 -4 c3 -4 -6 -6 -19 -3 -14 2 -25
6 -25 8 0 8 39 4 44 -5z m370 3 c24 -9 19 -24 -8 -24 -13 0 -26 7 -30 15 -6
16 10 20 38 9z m-427 -10 c-3 -3 -12 -4 -19 -1 -8 3 -5 6 6 6 11 1 17 -2 13
-5z m371 -11 c6 -19 -33 -16 -49 3 -11 14 -9 15 16 12 16 -1 30 -9 33 -15z
m303 0 c13 -15 11 -16 -13 -11 -15 3 -29 1 -30 -4 -2 -5 -29 -10 -61 -11 -31
-1 -57 -5 -57 -9 0 -10 -34 -10 -44 -1 -9 9 79 32 126 33 20 0 40 5 43 10 9
14 21 12 36 -7z m-718 0 c-7 -2 -21 -2 -30 0 -10 3 -4 5 12 5 17 0 24 -2 18
-5z m342 -8 c0 -17 -41 -17 -55 0 -12 15 -10 16 21 13 19 -2 34 -7 34 -13z
m-485 -5 c0 -5 -4 -10 -9 -10 -6 0 -13 5 -16 10 -3 6 1 10 9 10 9 0 16 -4 16
-10z m80 6 c0 -9 -39 -13 -51 -5 -10 6 -4 9 19 9 17 0 32 -2 32 -4z m338 -13
c6 -19 -33 -16 -49 3 -11 14 -9 15 16 12 16 -1 30 -9 33 -15z m-548 -3 c12 -8
9 -10 -12 -10 -16 0 -28 5 -28 10 0 13 20 13 40 0z m68 3 c-10 -2 -26 -2 -35
0 -10 3 -2 5 17 5 19 0 27 -2 18 -5z m340 -5 c7 -7 12 -16 12 -20 0 -14 -47
-9 -59 6 -12 14 -8 17 30 25 3 0 10 -4 17 -11z m70 -5 c6 -19 -33 -16 -49 3
-11 14 -9 15 16 12 16 -1 30 -9 33 -15z m-543 -3 c-3 -5 -12 -10 -20 -10 -8 0
-17 5 -20 10 -4 6 5 10 20 10 15 0 24 -4 20 -10z m393 -2 c7 -7 12 -16 12 -20
0 -13 -37 -9 -49 5 -20 24 14 38 37 15z m442 3 c0 -13 -37 -24 -51 -15 -8 4
-7 9 2 15 19 12 49 11 49 0z m-884 -29 c83 -73 262 -221 284 -235 24 -15 34
-15 135 2 61 10 117 19 125 19 26 2 494 74 509 78 11 4 10 8 -5 19 -22 17 -38
19 -29 5 10 -16 -41 -12 -55 5 -11 13 -5 15 42 15 42 0 59 -5 73 -20 16 -18
27 -20 99 -16 97 6 80 3 -224 -43 -113 -17 -302 -46 -420 -65 -185 -29 -218
-32 -240 -20 -18 9 -303 238 -349 280 -2 2 2 4 10 4 8 -1 28 -13 45 -28z m370
7 c18 -20 18 -20 -21 -17 -55 4 -58 26 -4 37 3 0 14 -8 25 -20z m433 12 c9 -6
10 -11 2 -15 -15 -10 -53 3 -46 15 8 11 26 11 44 0z m357 -4 c5 -4 0 -5 -10
-1 -13 5 -17 4 -12 -4 6 -11 -4 -14 -101 -26 -42 -6 -64 6 -41 21 25 15 151
23 164 10z m-882 -16 c16 -18 16 -19 -10 -25 -18 -5 -32 -2 -46 11 -20 18 -20
18 4 24 12 4 26 7 29 8 3 1 14 -7 23 -18z m454 1 c4 -14 -34 -16 -42 -3 -6 10
13 21 28 17 6 -1 12 -8 14 -14z m-70 -10 c3 -9 -2 -13 -14 -10 -9 1 -19 9 -22
16 -3 9 2 13 14 10 9 -1 19 -9 22 -16z m-548 -1 c0 -16 -28 -20 -40 -5 -10 12
-8 14 14 14 14 0 26 -4 26 -9z m61 -1 c10 -6 19 -15 19 -20 0 -14 -34 -12 -48
2 -26 26 -7 37 29 18z m429 -11 c0 -12 -47 -12 -55 0 -6 11 23 20 43 13 6 -2
12 -8 12 -13z m365 11 c4 -6 -6 -10 -24 -10 -16 0 -33 5 -36 10 -4 6 6 10 24
10 16 0 33 -4 36 -10z m-440 -9 c10 -17 -12 -21 -25 -6 -10 12 -10 15 3 15 9
0 18 -4 22 -9z m363 0 c10 -6 6 -10 -15 -14 -17 -3 -33 0 -43 9 -12 12 -10 14
15 14 17 0 36 -4 43 -9z m-408 -16 c11 -13 8 -15 -18 -15 -31 0 -47 11 -35 24
11 11 40 6 53 -9z m324 6 c7 -10 -23 -20 -41 -14 -7 3 -13 9 -13 14 0 12 47
12 54 0z m396 0 c0 -18 -124 -29 -135 -12 -5 10 29 16 98 19 20 1 37 -2 37 -7z
m-800 -16 c11 -13 9 -15 -13 -15 -13 0 -30 7 -37 15 -11 13 -9 15 13 15 13 0
30 -7 37 -15z m334 6 c11 -16 -27 -22 -43 -6 -14 13 -13 15 11 15 15 0 29 -4
32 -9z m-59 -11 c3 -5 0 -10 -7 -11 -7 0 -32 -3 -55 -5 -24 -3 -44 0 -48 6 -4
7 6 10 29 8 19 -1 38 1 42 5 11 10 32 9 39 -3z m298 -5 c1 -13 -30 -19 -51 -9
-14 6 -13 8 8 14 30 9 41 8 43 -5z m72 5 c3 -6 -5 -10 -19 -10 -14 0 -28 5
-31 10 -3 6 5 10 19 10 14 0 28 -4 31 -10z m-710 -14 c17 -12 16 -14 -19 -18
-27 -3 -45 1 -60 14 -21 17 -21 17 20 18 22 0 49 -6 59 -14z m-132 -7 c20 -5
37 -14 37 -18 0 -16 -74 -19 -97 -5 -49 31 -14 44 60 23z m347 -4 c10 -13 9
-15 -11 -15 -13 0 -35 3 -49 7 l-25 7 30 7 c17 4 33 7 36 8 4 0 12 -6 19 -14z
m345 5 c4 -6 -6 -10 -24 -10 -16 0 -33 5 -36 10 -4 6 6 10 24 10 16 0 33 -4
36 -10z m381 -5 c18 -13 17 -14 -18 -16 -21 -1 -45 -3 -53 -3 -28 -2 -20 19
10 25 17 4 33 7 36 8 3 0 14 -6 25 -14z m-456 -5 c0 -5 -15 -10 -34 -10 -19 0
-38 5 -41 10 -4 6 10 10 34 10 23 0 41 -4 41 -10z m-355 -10 c4 -6 -10 -10
-34 -10 -22 0 -43 5 -46 10 -4 6 10 10 34 10 22 0 43 -4 46 -10z m259 1 c6
-10 -33 -23 -46 -15 -4 3 -8 9 -8 15 0 12 47 12 54 0z m436 0 c0 -15 -49 -19
-61 -5 -9 11 -5 14 25 14 20 0 36 -4 36 -9z m-512 -18 c2 -8 -6 -13 -22 -13
-28 0 -43 15 -24 23 20 8 41 3 46 -10z m-88 -3 c19 -12 12 -17 -29 -22 -39 -3
-55 18 -19 25 13 2 25 5 28 5 3 1 12 -2 20 -8z m385 1 c3 -6 -9 -12 -27 -15
-253 -43 -279 -46 -298 -36 -15 8 -18 8 -14 -3 7 -19 -51 -30 -79 -15 -21 11
-21 11 -2 18 11 4 83 17 160 29 77 12 147 24 155 25 34 8 99 5 105 -3z m-571
-10 c7 -10 -147 -36 -169 -27 -30 11 -14 25 33 29 95 7 131 7 136 -2z m919 2
c-7 -2 -19 -2 -25 0 -7 3 -2 5 12 5 14 0 19 -2 13 -5z m-829 -12 c7 -11 -22
-23 -35 -15 -5 3 -7 10 -4 15 8 12 32 12 39 0z m-69 -21 c-3 -5 -15 -10 -26
-10 -10 0 -19 5 -19 10 0 6 12 10 26 10 14 0 23 -4 19 -10z m-51 -34 c18 -15
24 -26 17 -30 -12 -8 -76 11 -100 29 -13 9 -1 15 49 23 3 1 18 -9 34 -22z
m140 8 c9 -3 16 -10 16 -14 0 -15 -50 -21 -72 -9 -22 12 -22 12 -3 20 26 10
40 10 59 3z"/>
<path d="M3413 2404 c-35 -15 8 -70 106 -136 34 -23 93 -23 122 1 20 16 22 22
12 44 -7 14 -33 40 -60 58 -39 27 -59 34 -108 36 -33 1 -66 0 -72 -3z m132
-41 c30 -15 55 -31 55 -35 0 -15 -32 -8 -60 12 -16 11 -44 27 -62 35 -27 12
-29 14 -11 15 13 0 47 -12 78 -27z"/>
<path d="M3390 1893 c-157 -29 -241 -49 -253 -61 -44 -40 -47 -59 -47 -321 0
-271 2 -281 56 -281 35 0 508 106 533 119 44 24 50 55 57 304 6 211 5 238 -10
261 -22 35 -49 34 -336 -21z m290 -13 c23 -23 25 -86 13 -334 -5 -104 -10
-143 -22 -158 -13 -15 -68 -30 -259 -70 -237 -48 -244 -49 -264 -31 -20 18
-21 24 -14 248 6 220 8 231 29 253 19 18 63 30 252 66 127 24 233 44 238 45 4
1 16 -8 27 -19z m-526 -638 c-18 -4 -46 17 -38 29 3 5 16 1 29 -8 17 -13 19
-19 9 -21z"/>
</g>
</svg>