<svg width="17" height="12" viewBox="0 0 17 12" fill="none" xmlns="http://www.w3.org/2000/svg">
<path id="Exclude" fill-rule="evenodd" clip-rule="evenodd" d="M16 0.667969H15C14.4477 0.667969 14 1.11568 14 1.66797V10.3346C14 10.8869 14.4477 11.3346 15 11.3346H16C16.5523 11.3346 17 10.8869 17 10.3346V1.66797C17 1.11568 16.5523 0.667969 16 0.667969ZM10.333 3H11.333C11.8853 3 12.333 3.44772 12.333 4V10.3333C12.333 10.8856 11.8853 11.3333 11.333 11.3333H10.333C9.78072 11.3333 9.33301 10.8856 9.33301 10.3333V4C9.33301 3.44772 9.78072 3 10.333 3ZM6.66699 5.33594H5.66699C5.11471 5.33594 4.66699 5.78365 4.66699 6.33594V10.3359C4.66699 10.8882 5.11471 11.3359 5.66699 11.3359H6.66699C7.21928 11.3359 7.66699 10.8882 7.66699 10.3359V6.33594C7.66699 5.78365 7.21928 5.33594 6.66699 5.33594ZM2 7.33594H1C0.447715 7.33594 0 7.78365 0 8.33594V10.3359C0 10.8882 0.447715 11.3359 1 11.3359H2C2.55228 11.3359 3 10.8882 3 10.3359V8.33594C3 7.78365 2.55228 7.33594 2 7.33594Z" fill="black"/>
</svg>
