<svg width="16" height="12" viewBox="0 0 16 12" fill="none" xmlns="http://www.w3.org/2000/svg">
<path id="Exclude" fill-rule="evenodd" clip-rule="evenodd" d="M7.66707 2.61456C9.8918 2.61465 12.0315 3.46876 13.6438 5.00036C13.7652 5.1186 13.9593 5.11711 14.0789 4.99701L15.2395 3.82668C15.3 3.76577 15.3338 3.68326 15.3333 3.59741C15.3328 3.51156 15.2981 3.42945 15.2368 3.36925C11.0049 -0.682979 4.32857 -0.682979 0.0966565 3.36925C0.0353544 3.42941 0.000572274 3.51149 6.99859e-06 3.59734C-0.000558277 3.68319 0.0331399 3.76573 0.0936446 3.82668L1.25459 4.99701C1.37409 5.11729 1.56831 5.11878 1.68965 5.00036C3.30221 3.46866 5.44212 2.61455 7.66707 2.61456ZM9.89504 9.21545C9.95704 9.15465 9.99118 9.07099 9.98941 8.98421C9.98764 8.89743 9.9501 8.81523 9.88567 8.75702C8.60501 7.67474 6.72937 7.67474 5.44871 8.75702C5.38423 8.81519 5.34663 8.89736 5.3448 8.98414C5.34296 9.07092 5.37704 9.15461 5.439 9.21545L7.44464 11.2374C7.50342 11.2969 7.58356 11.3303 7.66719 11.3303C7.75081 11.3303 7.83096 11.2969 7.88974 11.2374L9.89504 9.21545ZM10.9741 7.69648C10.0681 6.87671 8.88934 6.42275 7.66699 6.42283C6.44545 6.42333 5.26766 6.87725 4.3622 7.69648C4.23964 7.81283 4.0466 7.8103 3.92713 7.6908L2.76819 6.52047C2.70702 6.45917 2.67302 6.3759 2.67384 6.28934C2.67466 6.20277 2.71022 6.12016 2.77255 6.06003C5.53171 3.49562 9.80462 3.49562 12.5638 6.06003C12.6261 6.12016 12.6616 6.20273 12.6625 6.28927C12.6634 6.3758 12.6295 6.45908 12.5685 6.52047L11.4092 7.6908C11.2897 7.8103 11.0967 7.81283 10.9741 7.69648Z" fill="black"/>
</svg>
