<svg width="141" height="30" viewBox="0 0 141 30" fill="none" xmlns="http://www.w3.org/2000/svg">
<path id="Rectangle 1131" d="M141 -6H18C12.4087 -6 9.61305 -6 7.40781 -5.08655C4.46747 -3.86863 2.13138 -1.53254 0.913452 1.4078C0 3.61305 0 6.4087 0 12C0 17.5913 0 20.3869 0.913452 22.5922C2.13138 25.5325 4.46747 27.8686 7.40781 29.0866C9.61305 30 12.4087 30 18 30H123C128.591 30 131.387 30 133.592 29.0866C136.533 27.8686 138.869 25.5325 140.087 22.5922C141 20.3869 141 17.5913 141 12V-6Z" fill="#20A090"/>
</svg>
