<svg width="112" height="36" viewBox="0 0 112 36" fill="none" xmlns="http://www.w3.org/2000/svg">
<path id="Rectangle 1132" d="M0 0H94C99.5913 0 102.387 0 104.592 0.913446C107.533 2.13137 109.869 4.46746 111.087 7.4078C112 9.61305 112 12.4087 112 18C112 23.5913 112 26.3869 111.087 28.5922C109.869 31.5325 107.533 33.8686 104.592 35.0866C102.387 36 99.5913 36 94 36H18C12.4087 36 9.61305 36 7.4078 35.0866C4.46746 33.8686 2.13137 31.5325 0.913446 28.5922C0 26.3869 0 23.5913 0 18V0Z" fill="#F2F7FB"/>
</svg>
